<svg xmlns="http://www.w3.org/2000/svg" viewBox="0 0 100 89.5"><path fill="#FFD400" d="M50 50.3c7 0 12.8-5.7 12.8-12.8 0-7.1-5.7-12.8-12.8-12.8s-12.8 5.7-12.8 12.8c0 6.9 5.8 12.8 12.8 12.8zm0-21.4c4.7 0 8.4 3.8 8.4 8.4 0 4.7-3.8 8.4-8.4 8.4-4.7 0-8.4-3.8-8.4-8.4 0-4.5 3.7-8.4 8.4-8.4zm26.1 11.5c7 0 12.8-5.7 12.8-12.8 0-7.1-5.7-12.8-12.8-12.8s-12.9 5.7-12.9 12.8c0 7.1 5.7 12.8 12.9 12.8zm0-21.3c4.7 0 8.4 3.8 8.4 8.4S80.7 36 76.1 36c-4.5 0-8.5-3.8-8.5-8.4 0-4.5 3.8-8.5 8.5-8.5zM23.9 40.4c7 0 12.8-5.7 12.8-12.8 0-7.1-5.7-12.8-12.8-12.8s-12.8 5.7-12.8 12.8c0 7.1 5.8 12.8 12.8 12.8zm0-21.3c4.7 0 8.4 3.8 8.4 8.4S28.6 36 23.9 36s-8.4-3.8-8.4-8.4c0-4.5 3.8-8.5 8.4-8.5zM94 55.4v16.3c0 1.2-1 2.2-2.2 2.2h-21v-4.4h18.8V55.4c0-3.7-2.9-6.6-6.6-6.6H69.1c-2.6 0-5 1.6-6 3.8-1.3-.4-2.6-.9-4.3-1.2 1.6-4.1 5.6-6.9 10.1-6.9H83c6.2 0 11 4.9 11 10.9zm-83.6 0v14.1h18.8V74h-21C7 74 6 72.9 6 71.8V55.4c0-6 4.8-11 11-11h13.9c4.7 0 8.7 2.9 10.1 6.9-1.5.1-2.9.6-4.3 1.3-1-2.2-3.2-3.8-6-3.8h-14c-3.4.2-6.3 3.1-6.3 6.6zM57 54.2H43c-6 0-11 4.9-11 11v16.3c0 1.2 1 2.2 2.2 2.2h31.5c1.2 0 2.2-1 2.2-2.2V65.3c0-6.1-4.8-11.1-10.9-11.1zm6.5 25.2h-27V65.3c0-3.7 2.9-6.6 6.6-6.6h14.1c3.7 0 6.6 2.9 6.6 6.6v14.1h-.3z" fill-rule="evenodd" clip-rule="evenodd"/></svg>
