<svg xmlns="http://www.w3.org/2000/svg" viewBox="0 0 100 89.5"><path fill="#FFD400" d="M61.6 27.7c0-5.9-4.8-10.6-10.6-10.6-5.9 0-10.6 4.8-10.6 10.6 0 5.9 4.8 10.6 10.6 10.6 5.8.1 10.6-4.7 10.6-10.6zm-10.7-6.6c3.7 0 6.6 3 6.6 6.6 0 3.7-3 6.6-6.6 6.6-3.6 0-6.6-3-6.6-6.6 0-3.6 3-6.6 6.6-6.6zM50.9 14.5c1.1 0 2-.9 2-2V7.1c0-1.1-.9-2-2-2s-2 .9-2 2v5.3c0 1.2.9 2.1 2 2.1zM57.5 16.2c.3.2.6.3 1 .3.7 0 1.4-.4 1.7-1l2.6-4.6c.3-.5.3-1 .2-1.5-.1-.5-.5-.9-.9-1.2-1-.5-2.2-.2-2.7.7l-2.6 4.6c-.6.9-.2 2.1.7 2.7zM62.4 21c.4.6 1 1 1.7 1 .4 0 .7-.1 1-.3l4.6-2.7c.9-.6 1.3-1.8.7-2.7-.6-.9-1.8-1.3-2.7-.7l-4.6 2.7c-1 .5-1.3 1.7-.7 2.7zM64.2 27.5c0 1.1.9 2 2 2l5.3-.1c1.1 0 2-.9 2-2s-.9-2-2-2l-5.3.1c-1.1 0-2 .9-2 2zM69 39.6c.7 0 1.4-.4 1.8-1 .3-.5.3-1 .2-1.5-.1-.5-.5-.9-1-1.2l-4.7-2.6c-.5-.3-1-.3-1.5-.2-.5.1-.9.5-1.2 1-.5 1-.2 2.2.8 2.7l4.7 2.6c.2.1.6.2.9.2zM60 46.3c.4.6 1 1 1.7 1 .4 0 .7-.1 1-.3.5-.3.8-.7.9-1.2.1-.5 0-1.1-.2-1.5l-2.8-4.5c-.3-.5-.7-.8-1.2-.9-.5-.1-1.1 0-1.5.2-.5.3-.8.7-.9 1.2-.1.5 0 1.1.2 1.5l2.8 4.5zM51.4 41c-1.1 0-2 1-1.9 2.1l.2 5.3c0 1.1.9 1.9 2.1 1.9.5 0 1-.2 1.4-.6.4-.4.6-.9.5-1.4l-.2-5.3c0-.5-.2-1-.6-1.4-.5-.4-1-.6-1.5-.6zM40.4 47.7c.3.2.6.2.9.2.7 0 1.4-.4 1.8-1.1l2.5-4.7c.2-.5.3-1 .1-1.5-.2-.5-.5-.9-1-1.2-.5-.2-1-.3-1.5-.1-.5.2-.9.5-1.2 1L39.6 45c-.2.5-.3 1-.1 1.5.1.6.4 1 .9 1.2zM39.8 34.9c-.3-.5-.7-.8-1.3-.9-.5-.1-1.1 0-1.5.3l-4.5 2.9c-.9.6-1.2 1.8-.6 2.8.4.6 1 .9 1.7.9.4 0 .8-.1 1.1-.3l4.5-2.9c.5-.3.8-.7.9-1.3 0-.5-.1-1.1-.3-1.5zM30.4 30.8l5.4-.3c.5 0 1-.3 1.4-.7.4-.4.5-.9.5-1.4 0-.5-.3-1-.7-1.4-.4-.4-.9-.5-1.4-.5l-5.3.3c-.5 0-1 .3-1.4.7-.4.4-.5.9-.5 1.4 0 1 .9 1.9 2 1.9zM31.7 20.2l4.7 2.4c.3.1.6.2.9.2.8 0 1.4-.4 1.8-1.1.2-.5.3-1 .1-1.5-.2-.5-.5-.9-1-1.2l-4.7-2.4c-1-.5-2.2-.1-2.7.9-.2.5-.3 1-.1 1.5.1.6.5 1 1 1.2zM40.8 16.1c.4.6 1 .9 1.7.9.4 0 .8-.1 1.1-.3.4-.3.7-.7.9-1.3.1-.5 0-1.1-.3-1.5l-2.9-4.4c-.6-.9-1.9-1.2-2.8-.6-.4.3-.7.7-.9 1.3s0 1.1.3 1.5l2.9 4.4zM89.1 83.2c-.6-5.4-4.7-9.8-10-10.6v-2.7c2.1-.1 5.3-.7 7.5-2.9 3.5-3.4 3.3-9 3.2-9.6-.1-1-.8-1.8-1.8-1.9-.2 0-6.1-.5-9.7 2.9-.4.4-.8.9-1.2 1.4-.3-.5-.7-.9-1-1.3-3.6-3.7-9.6-3.2-9.6-3.2-1 .1-1.8.8-1.9 1.8-.1.6-.5 6.2 2.9 9.7 2.2 2.3 5.3 3 7.5 3.2v2.6c-5.4.9-9.5 5.2-10.1 10.6h-3.1c-.6-5.4-4.7-9.7-10-10.6v-2.7c2.1-.1 5.3-.7 7.5-2.9 3.5-3.4 3.3-9 3.2-9.6-.1-1-.8-1.8-1.8-1.9-.2 0-6.1-.5-9.7 2.9-.4.4-.8.9-1.2 1.4-.3-.5-.7-.9-1-1.3-3.6-3.7-9.6-3.2-9.6-3.2-1 .1-1.8.8-1.9 1.8 0 .2-.5 6.1 2.9 9.7 2.2 2.3 5.3 3 7.5 3.2v2.6c-5.4.9-9.5 5.2-10.1 10.6h-3.1c-.6-5.4-4.7-9.7-10-10.6v-2.7c2.1-.1 5.3-.7 7.5-2.9 3.5-3.4 3.3-9 3.2-9.6-.1-1-.8-1.8-1.8-1.9-.2 0-6.1-.5-9.7 2.9-.4.4-.8.9-1.2 1.4-.3-.5-.7-.9-1-1.3-3.6-3.7-9.6-3.2-9.6-3.2-1 .1-1.8.8-1.9 1.8 0 .2-.5 6.1 2.9 9.7 2.2 2.3 5.3 3 7.5 3.2v2.6c-5.4.9-9.6 5.3-10.1 10.8-.7.3-1.2 1-1.2 1.8 0 1.1.9 2 2 2H89c1.1 0 2-.9 2-2 0-1-.9-1.9-1.9-2zM53.9 61.3c1.3-1.2 3.2-1.7 4.6-1.8-.2 1.4-.7 3.3-1.9 4.6-1.3 1.2-3.2 1.7-4.6 1.8.1-1.4.6-3.4 1.9-4.6zm-4.1 15.1c4 0 7.4 2.9 8 6.8h-16c.6-3.9 4-6.8 8-6.8zM46 61.3c1.3 1.3 1.7 3.3 1.8 4.6-1.4-.2-3.3-.6-4.6-1.9-1.2-1.3-1.7-3.2-1.8-4.6 1.4.2 3.4.7 4.6 1.9zM22.6 76.4c4 0 7.4 2.9 8 6.8h-16c.6-3.9 4-6.8 8-6.8zm8.7-16.9c-.2 1.4-.7 3.3-1.9 4.6-1.3 1.2-3.2 1.7-4.6 1.8.2-1.4.6-3.3 1.9-4.6 1.3-1.2 3.2-1.7 4.6-1.8zm-12.5 1.8c1.3 1.3 1.7 3.3 1.8 4.6-1.4-.2-3.3-.6-4.6-1.9-1.2-1.3-1.7-3.2-1.8-4.6 1.4.2 3.3.7 4.6 1.9zM77 76.4c4 0 7.4 2.9 8 6.8H69c.7-3.9 4-6.8 8-6.8zm8.7-16.9c-.2 1.4-.6 3.3-1.9 4.6-1.3 1.2-3.2 1.7-4.6 1.8.2-1.4.6-3.3 1.9-4.6 1.3-1.2 3.3-1.7 4.6-1.8zm-12.5 1.8c1.3 1.3 1.7 3.3 1.8 4.6-1.4-.2-3.3-.6-4.6-1.9-1.2-1.3-1.7-3.2-1.8-4.6 1.4.2 3.4.7 4.6 1.9z"/></svg>
